#!OML:ASF I:\Actors\actors\Patient Classification 1\Patient 1\Session 1\Subject1.ASF
:FULLY-SPECIFIED
:DEGREES
799
root 0.877685 17.5823 8.24798 5.21165 -5.23712 -9.64208
lowerback -2.71336 -0.274556 8.46622
upperback -4.88211 -0.374317 1.12572
thorax -3.61472 -0.469945 -3.56645
lowerneck -12.3768 -5.38778 -1.50869
upperneck 35.7809 -9.67946 4.72432
head 14.7991 -3.80305 0.633406
rclavicle -8.89561e-015 3.18055e-015
rhumerus -30.0612 69.6816 -124.357
rradius 125.659
rwrist -8.7048
rhand -0.557767 -58.0179
rfingers 7.12502
rthumb 25.056 -806.394
lclavicle -8.89561e-015 3.18055e-015
lhumerus -102.844 -100.7 197.558
lradius 101.177
lwrist 47.4407
lhand 33.5529 -6.05447
lfingers 7.12502
lthumb 56.8697 10.6396
rfemur -7.5143 19.6959 26.9298
rtibia 13.5612
rfoot -14.1927 -14.5028
rtoes -2.81528
lfemur 2.15217 -24.8322 -8.14654
ltibia 1.85011
lfoot -13.6513 36.8287
ltoes -1.64059
800
root 0.877665 17.5873 8.25548 5.15394 -5.01662 -9.55454
lowerback -2.79031 -0.231407 8.83084
upperback -4.78214 -0.337286 0.910341
thorax -3.47125 -0.459974 -3.99621
lowerneck -12.7617 -5.24333 -1.53392
upperneck 36.094 -9.50116 4.776
head 15.0356 -3.70114 0.676885
rclavicle -1.88845e-015 -7.07673e-014
rhumerus -29.6976 70.1063 -123.924
rradius 125.998
rwrist -7.99269
rhand -1.29635 -58.2529
rfingers 7.12502
rthumb 24.3481 -806.726
lclavicle -1.88845e-015 -7.07673e-014
lhumerus -103.979 -100.769 198.557
lradius 101.25
lwrist 46.7017
lhand 33.7258 -5.76768
lfingers 7.12502
lthumb 57.0217 10.8002
rfemur -7.42039 19.6602 26.8679
rtibia 13.5674
rfoot -14.2684 -14.7
rtoes -2.97598
lfemur 2.11895 -24.8422 -8.23982
ltibia 1.89256
lfoot -13.4653 36.6575
ltoes -1.98456
801
root 0.876934 17.5914 8.26258 5.08073 -4.80485 -9.5129
lowerback -2.88984 -0.167558 9.12546
upperback -4.71404 -0.271652 0.772497
thorax -3.34174 -0.43245 -4.30626
lowerneck -12.8105 -5.14052 -1.77668
upperneck 36.2891 -9.35085 4.94386
head 15.161 -3.63841 0.813433
rclavicle 1.19271e-014 -5.56597e-015
rhumerus -29.0626 70.3102 -123.116
rradius 126.379
rwrist -7.90825
rhand -1.59413 -58.5762
rfingers 7.12502
rthumb 24.0626 -807.088
lclavicle 1.19271e-014 -5.56597e-015
lhumerus -105.759 -100.633 200.283
lradius 101.454
lwrist 45.6949
lhand 33.7959 -4.69529
lfingers 7.12502
lthumb 57.0834 11.821
rfemur -7.27904 19.6235 26.8672
rtibia 13.5189
rfoot -14.33 -14.876
rtoes -2.71266
lfemur 2.14317 -24.8584 -8.29206
ltibia 1.88344
lfoot -13.2707 36.4983
ltoes -2.40948
802
root 0.874584 17.5949 8.26854 5.01804 -4.58896 -9.48959
lowerback -2.97634 -0.13379 9.00465
upperback -4.74919 -0.229577 0.919557
thorax -3.32028 -0.404495 -4.08531
lowerneck -12.6431 -5.0567 -2.23733
upperneck 36.6394 -9.13948 5.00132
head 15.312 -3.59733 0.960703
rclavicle -7.40473e-015 5.56597e-015
rhumerus -29.0392 70.4787 -122.546
rradius 126.742
rwrist -8.35576
rhand -1.82715 -58.7392
rfingers 7.12502
rthumb 23.8392 -807.28
lclavicle -7.40473e-015 5.56597e-015
lhumerus -109.98 -100.246 204.629
lradius 101.651
lwrist 44.9701
lhand 34.4951 -4.13664
lfingers 7.12502
lthumb 57.6965 11.854
rfemur -7.16741 19.5517 26.8777
rtibia 13.497
rfoot -14.4016 -15.013
rtoes -2.53746
lfemur 2.18379 -24.9528 -8.32003
ltibia 1.83095
lfoot -13.1786 36.39
ltoes -2.55433
803
root 0.872003 17.5993 8.27177 4.94879 -4.34344 -9.4339
lowerback -2.97359 -0.143559 8.59834
upperback -4.83096 -0.227094 1.22238
thorax -3.39721 -0.388674 -3.54214
lowerneck -12.5133 -4.96517 -2.62392
upperneck 37.1259 -8.85719 4.81605
head 15.5141 -3.54618 1.00581
rclavicle -1.71949e-014 9.93923e-015
rhumerus -29.4198 70.7113 -122.236
rradius 126.986
rwrist -8.86273
rhand -2.25433 -58.8025
rfingers 7.12502
rthumb 23.4294 -807.396
lclavicle -1.71949e-014 9.93923e-015
lhumerus -114.39 -99.9914 209.246
lradius 101.85
lwrist 44.6596
lhand 35.337 -4.27828
lfingers 7.12502
lthumb 58.4304 11.0506
rfemur -7.09383 19.4618 26.8508
rtibia 13.5327
rfoot -14.4655 -15.1817
rtoes -2.76266
lfemur 2.19476 -25.0627 -8.37338
ltibia 1.80036
lfoot -13.1167 36.255
ltoes -2.6298
804
root 0.869706 17.6039 8.27334 4.85859 -4.06723 -9.41085
lowerback -2.95939 -0.144608 8.5213
upperback -4.88005 -0.221496 1.29151
thorax -3.45432 -0.385246 -3.42675
lowerneck -12.3776 -4.88716 -2.74627
upperneck 37.5399 -8.69899 4.71707
head 15.6801 -3.50311 1.01961
rclavicle 2.88238e-015 2.06736e-014
rhumerus -29.3283 70.8549 -121.861
rradius 127.159
rwrist -9.25521
rhand -2.79672 -59.1097
rfingers 7.12502
rthumb 22.909 -807.769
lclavicle 2.88238e-015 2.06736e-014
lhumerus -115.871 -99.9031 210.628
lradius 102.112
lwrist 44.569
lhand 35.8076 -4.49535
lfingers 7.12502
lthumb 58.8385 10.4491
rfemur -6.99667 19.3641 26.8744
rtibia 13.579
rfoot -14.5391 -15.3764
rtoes -2.83588
lfemur 2.17274 -25.0185 -8.34657
ltibia 1.80061
lfoot -12.9498 35.9613
ltoes -2.90798
805
root 0.86508 17.6076 8.275 4.78672 -3.84631 -9.44865
lowerback -3.04622 -0.104855 8.88101
upperback -4.86116 -0.186662 1.06777
thorax -3.3897 -0.381732 -3.86112
lowerneck -12.217 -4.81427 -2.69284
upperneck 37.7535 -8.68029 4.86942
head 15.7572 -3.46629 1.08515
rclavicle 1.25731e-014 1.59028e-015
rhumerus -28.6132 70.8599 -121.382
rradius 127.358
rwrist -9.52356
rhand -3.2968 -59.6605
rfingers 7.12502
rthumb 22.4291 -808.378
lclavicle 1.25731e-014 1.59028e-015
lhumerus -114.766 -99.9015 209.067
lradius 102.338
lwrist 44.5126
lhand 35.948 -4.58645
lfingers 7.12502
lthumb 58.9599 10.2412
rfemur -6.93333 19.2922 26.9675
rtibia 13.6648
rfoot -14.6552 -15.5102
rtoes -2.60572
lfemur 2.15909 -24.8964 -8.22537
ltibia 1.76713
lfoot -12.6886 35.6783
ltoes -3.45671
806
root 0.859041 17.6098 8.27794 4.73049 -3.6948 -9.44578
lowerback -3.16548 -0.0183289 9.19154
upperback -4.82809 -0.0949467 0.808954
thorax -3.28247 -0.346282 -4.30564
lowerneck -11.9484 -4.76547 -2.63418
upperneck 37.7015 -8.69546 5.08073
head 15.6794 -3.44322 1.17022
rclavicle 4.57205e-015 1.27222e-014
rhumerus -28.0853 70.8991 -121.126
rradius 127.382
rwrist -8.77455
rhand -4.08162 -59.9767
rfingers 7.12502
rthumb 21.6756 -808.783
lclavicle 4.57205e-015 1.27222e-014
lhumerus -113.083 -99.9103 206.951
lradius 102.512
lwrist 44.5019
lhand 35.9387 -4.5989
lfingers 7.12502
lthumb 58.9519 10.2365
rfemur -6.88227 19.2612 27.0145
rtibia 13.7277
rfoot -14.7544 -15.6174
rtoes -2.62537
lfemur 2.18037 -24.8265 -8.18629
ltibia 1.72161
lfoot -12.5072 35.5124
ltoes -3.97933
807
root 0.85363 17.6105 8.28212 4.65605 -3.52305 -9.34
lowerback -3.20241 -0.00346199 9.05881
upperback -4.86421 -0.0757846 0.802417
thorax -3.29462 -0.333897 -4.23825
lowerneck -11.5651 -4.70189 -2.8651
upperneck 37.6117 -8.57815 5.23156
head 15.558 -3.41692 1.30526
rclavicle -1.86858e-014 4.77083e-015
rhumerus -28.0938 70.9839 -121.053
rradius 127.504
rwrist -8.53724
rhand -4.66092 -60.2827
rfingers 7.12502
rthumb 21.1192 -809.152
lclavicle -1.86858e-014 4.77083e-015
lhumerus -114.002 -99.8452 207.696
lradius 102.685
lwrist 44.5952
lhand 36.1567 -4.57702
lfingers 7.12502
lthumb 59.1402 10.0753
rfemur -6.77554 19.1982 26.9468
rtibia 13.7163
rfoot -14.8191 -15.727
rtoes -2.80356
lfemur 2.22097 -24.8269 -8.30432
ltibia 1.69954
lfoot -12.4214 35.3639
ltoes -4.30572
808
root 0.848226 17.6113 8.28498 4.59321 -3.33322 -9.26284
lowerback -3.24236 -0.0515015 9.02265
upperback -4.91229 -0.140835 0.803105
thorax -3.33144 -0.368113 -4.21731
lowerneck -11.0926 -4.55443 -3.13401
upperneck 37.5291 -8.34916 5.439
head 15.417 -3.34379 1.4913
rclavicle -2.41523e-014 2.8625e-014
rhumerus -28.4713 71.1608 -121.383
rradius 127.606
rwrist -8.42632
rhand -4.88174 -60.3081
rfingers 7.12502
rthumb 20.907 -809.201
lclavicle -2.41523e-014 2.8625e-014
lhumerus -116.006 -99.7819 209.403
lradius 102.891
lwrist 44.7845
lhand 36.2443 -4.45387
lfingers 7.12502
lthumb 59.2158 10.1242
rfemur -6.68429 19.1221 26.9026
rtibia 13.7085
rfoot -14.8755 -15.8301
rtoes -2.71271
lfemur 2.21335 -24.8492 -8.3701
ltibia 1.71533
lfoot -12.2633 35.215
ltoes -4.69149
